<svg width="24" height="24" viewBox="0 0 24 24" fill="none" xmlns="http://www.w3.org/2000/svg">
<g id="fluent:people-team-16-regular">
<path id="Vector" d="M2.00004 18.4284C2.00004 19.4682 2.62685 20.406 3.58714 20.8038C4.54825 21.2024 5.65485 20.9822 6.3901 20.2469C7.12539 19.5116 7.34557 18.4051 6.94699 17.444C6.5492 16.4837 5.6114 15.8569 4.57152 15.8569C3.15157 15.8569 2.00004 17.0084 2.00004 18.4284ZM4.57156 17.1426C5.09148 17.1426 5.56079 17.456 5.75927 17.9366C5.95857 18.4171 5.84847 18.97 5.48042 19.3372C5.11316 19.7053 4.56029 19.8154 4.07974 19.6161C3.5992 19.4176 3.28578 18.9483 3.28578 18.4284C3.28578 17.718 3.86118 17.1426 4.57156 17.1426ZM8.42884 18.4284C8.42884 19.4682 9.05565 20.406 10.0159 20.8038C10.9771 21.2024 12.0836 20.9822 12.8189 20.2469C13.5542 19.5116 13.7744 18.4051 13.3758 17.444C12.978 16.4837 12.0402 15.8569 11.0003 15.8569C9.58037 15.8569 8.42884 17.0084 8.42884 18.4284ZM11.0004 17.1426C11.5203 17.1426 11.9896 17.456 12.1881 17.9366C12.3874 18.4171 12.2773 18.97 11.9092 19.3372C11.542 19.7053 10.9891 19.8154 10.5085 19.6161C10.028 19.4176 9.71458 18.9483 9.71458 18.4284C9.71458 17.718 10.29 17.1426 11.0004 17.1426ZM17.4292 15.8568C16.3893 15.8568 15.4515 16.4837 15.0537 17.4439C14.6551 18.405 14.8753 19.5116 15.6106 20.2469C16.3459 20.9822 17.4524 21.2024 18.4135 20.8038C19.3738 20.406 20.0006 19.4682 20.0006 18.4283C20.0006 17.7461 19.7298 17.0919 19.2477 16.6098C18.7655 16.1276 18.1114 15.8568 17.4292 15.8568ZM17.4292 19.7141C16.9092 19.7141 16.4399 19.4007 16.2414 18.9202C16.0422 18.4396 16.1522 17.8867 16.5203 17.5195C16.8876 17.1514 17.4404 17.0413 17.921 17.2406C18.4015 17.4391 18.7149 17.9084 18.7149 18.4283C18.7149 18.7691 18.5791 19.0961 18.3381 19.3372C18.097 19.5783 17.7699 19.7141 17.4292 19.7141ZM18.072 13.2853C18.072 12.2205 17.2082 11.3567 16.1434 11.3567H11.6432V9.36375C12.6936 9.14918 13.5671 8.42595 13.9745 7.43431C14.3811 6.44267 14.267 5.31435 13.6699 4.42398C13.0728 3.5336 12.0724 3 11.0003 3C9.92816 3 8.92782 3.5336 8.33061 4.42398C7.73354 5.31437 7.61943 6.44263 8.02604 7.43431C8.43347 8.42595 9.30698 9.14918 10.3573 9.36375V11.3567H5.85712C4.79234 11.3567 3.92848 12.2205 3.92848 13.2853V15.8568H5.21424V13.2853C5.21424 12.9301 5.50192 12.6424 5.85712 12.6424H10.3573V15.8568H11.643V12.6424H16.1432C16.3136 12.6424 16.4775 12.7099 16.598 12.8305C16.7186 12.951 16.7861 13.115 16.7861 13.2853V15.8568H18.0718L18.072 13.2853ZM9.07172 6.21364C9.07172 5.43334 9.54184 4.7302 10.2627 4.43205C10.9827 4.13311 11.8128 4.29865 12.3641 4.84991C12.9154 5.40118 13.0809 6.23129 12.782 6.95136C12.4838 7.67218 11.7807 8.1423 11.0004 8.1423C9.93561 8.1423 9.07172 7.27841 9.07172 6.21364Z" fill="black"/>
</g>
</svg>
